#N canvas 251 122 1029 570 10;
#N canvas 0 22 450 278 (subpatch) 0;
#X array soundData 1.29613e+07 float 4;
#X coords 0 1 1.29613e+07 -1 200 140 1 0 0;
#X restore 5 398 graph;
#X obj 402 109 soundfiler;
#X floatatom 351 157 20 0 0 0 - - -;
#X obj 413 260 phasor~;
#X obj 511 281 *~;
#X obj 448 305 tabread4~ soundData;
#X obj 522 526 dac~;
#X obj 351 208 expr 44100/$f1;
#X obj 933 201 hsl 64 15 0.0027 0.0043 0 0 0$@ 0 0 0 0 0 4 -262144
-1 -1 0 0;
#X floatatom 932 240 10 0 0 0 - - -;
#X msg 796 128 -1;
#X msg 845 129 1;
#X floatatom 850 249 10 0 0 0 - - -;
#X obj 828 215 *~;
#X msg 891 129 0;
#X obj 556 382 delwrite~ delayname 200;
#X obj 557 337 *~;
#X obj 784 278 vsl 15 128 -0.1 0.5 0 0 empty empty empty 0 -9 0 10
-262144 -1 -1 0 1;
#X obj 521 450 delread~ delayname 75;
#X obj 237 268 hsl 128 15 20 20000 1 0 empty empty empty -2 -8 0 10
-262144 -1 -1 0 1;
#X obj 226 324 hip~;
#X obj 272 384 hsl 128 15 50 20000 1 1 empty empty empty -2 -8 0 10
-261682 -1 -1 12700 1;
#X obj 226 450 lop~;
#X obj 364 25 loadbang;
#X obj 25 27 netreceive 1000;
#X obj 25 127 s audio_on;
#X obj 40 157 s audio_reverse;
#X obj 57 182 s audio_off;
#X obj 79 208 s hipassf;
#X obj 96 235 s lowpassf;
#X obj 117 262 s delay;
#X obj 131 290 s pitch;
#X obj 784 247 r delay;
#X obj 842 5 r audio_on;
#X obj 784 36 r audio_reverse;
#X obj 888 36 r audio_off;
#X obj 235 226 r hipassf;
#X obj 269 350 r lowpassf;
#X obj 930 162 r pitch;
#X msg 269 67 \; pd dsp \$1 \;;
#X obj 784 89 bng 15 250 50 0 empty empty empty 17 7 0 10 -262144 -1
-1;
#X obj 842 91 bng 15 250 50 0 empty empty empty 17 7 0 10 -262144 -1
-1;
#X obj 889 93 bng 15 250 50 0 empty empty empty 17 7 0 10 -262144 -1
-1;
#X obj 25 69 route 0 1 2 3 4 5 6;
#X floatatom 179 118 5 0 0 0 - - -;
#X floatatom 179 138 5 0 0 0 - - -;
#X floatatom 179 158 5 0 0 0 - - -;
#X floatatom 179 178 5 0 0 0 - - -;
#X floatatom 179 198 5 0 0 0 - - -;
#X floatatom 179 218 5 0 0 0 - - -;
#X floatatom 179 241 5 0 0 0 - - -;
#X floatatom 179 261 5 0 0 0 - - -;
#X msg 401 71 read -resize \$1 wheelchair-design-platform/PureData/file1.wav
, f 65;
#X connect 1 0 2 0;
#X connect 2 0 7 0;
#X connect 2 0 4 1;
#X connect 3 0 4 0;
#X connect 4 0 5 0;
#X connect 5 0 20 0;
#X connect 7 0 3 0;
#X connect 8 0 9 0;
#X connect 8 0 13 1;
#X connect 10 0 13 0;
#X connect 11 0 13 0;
#X connect 13 0 3 0;
#X connect 13 0 12 0;
#X connect 14 0 13 0;
#X connect 16 0 15 0;
#X connect 17 0 16 1;
#X connect 18 0 16 0;
#X connect 18 0 6 0;
#X connect 18 0 6 1;
#X connect 19 0 20 1;
#X connect 20 0 22 0;
#X connect 21 0 22 1;
#X connect 22 0 15 0;
#X connect 23 0 52 0;
#X connect 23 0 39 0;
#X connect 24 0 43 0;
#X connect 32 0 17 0;
#X connect 33 0 41 0;
#X connect 34 0 40 0;
#X connect 35 0 42 0;
#X connect 36 0 19 0;
#X connect 37 0 21 0;
#X connect 38 0 8 0;
#X connect 40 0 10 0;
#X connect 41 0 11 0;
#X connect 42 0 14 0;
#X connect 43 0 25 0;
#X connect 43 0 44 0;
#X connect 43 1 26 0;
#X connect 43 1 45 0;
#X connect 43 2 27 0;
#X connect 43 2 46 0;
#X connect 43 3 28 0;
#X connect 43 3 47 0;
#X connect 43 4 29 0;
#X connect 43 4 48 0;
#X connect 43 5 30 0;
#X connect 43 5 49 0;
#X connect 43 6 31 0;
#X connect 43 6 50 0;
#X connect 43 7 51 0;
#X connect 52 0 1 0;
