#N canvas 250 132 1029 573 10;
#N canvas 0 22 450 278 (subpatch) 0;
#X array soundData 1.29613e+07 float 4;
#X coords 0 1 1.29613e+07 -1 200 140 1;
#X restore 717 123 graph;
#X obj 402 121 soundfiler;
#X floatatom 403 153 20 0 0 0 - - -;
#X obj 412 260 phasor~;
#X obj 503 243 *~;
#X obj 448 305 tabread4~ soundData;
#X obj 529 500 dac~;
#X obj 344 185 expr 44100/$f1;
#X obj 575 161 hsl 128 15 0.0027 0.0043 0 0 0$@ 0 0 0 0 0 4 -262144
-1 -1 5900 0;
#X floatatom 608 228 10 0 0 0 - - -;
#X msg 542 79 -1;
#X msg 590 78 1;
#X floatatom 548 248 10 0 0 0 - - -;
#X obj 524 200 *~;
#X msg 633 81 0;
#X obj 538 357 delwrite~ delayname 200;
#X obj 643 412 *~;
#X obj 738 280 vsl 15 128 -0.1 0.5 0 0 empty empty empty 0 -9 0 10
-262144 -1 -1 0 1;
#X obj 512 448 delread~ delayname 75;
#X obj 222 274 hsl 128 15 20 20000 1 0 empty empty empty -2 -8 0 10
-262144 -1 -1 0 1;
#X obj 226 324 hip~;
#X obj 287 362 hsl 128 15 50 20000 1 0 empty empty empty -2 -8 0 10
-262144 -1 -1 9200 1;
#X obj 246 424 lop~;
#X msg 402 44 read /Users/matthijsbremmer/Desktop/file1.wav soundData
;
#X connect 1 0 2 0;
#X connect 2 0 7 0;
#X connect 2 0 4 1;
#X connect 3 0 4 0;
#X connect 4 0 5 0;
#X connect 5 0 20 0;
#X connect 7 0 3 0;
#X connect 8 0 9 0;
#X connect 8 0 13 1;
#X connect 10 0 13 0;
#X connect 11 0 13 0;
#X connect 13 0 3 0;
#X connect 13 0 12 0;
#X connect 14 0 13 0;
#X connect 16 0 15 0;
#X connect 17 0 16 1;
#X connect 18 0 16 0;
#X connect 18 0 6 0;
#X connect 18 0 6 1;
#X connect 19 0 20 1;
#X connect 20 0 22 0;
#X connect 21 0 22 1;
#X connect 22 0 15 0;
#X connect 23 0 1 0;
