#N canvas 154 95 450 300 10;
#X msg 131 84 400;
#X obj 131 113 osc~ 0;
#X obj 133 144 *~ 0.1;
#X obj 132 177 dac~;
#X obj 130 54 loadbang;
#X connect 0 0 1 0;
#X connect 1 0 2 0;
#X connect 2 0 3 0;
#X connect 2 0 3 1;
#X connect 4 0 0 0;
