#N canvas 953 0 958 988 10;
#X msg 131 84 400;
#X obj 131 113 osc~ 0;
#X obj 133 144 *~ 0.1;
#X obj 132 177 dac~;
#X obj 241 105 r audio_on_off;
#X floatatom 241 140 5 0 0 0 - - -;
#X msg 241 176 \; pd dsp \$1 \;;
#X obj 248 277 netreceive 3000;
#X obj 248 298 route 0 1;
#X obj 248 319 s audio_on_off;
#X obj 131 36 loadbang;
#X connect 0 0 1 0;
#X connect 1 0 2 0;
#X connect 2 0 3 0;
#X connect 2 0 3 1;
#X connect 4 0 5 0;
#X connect 5 0 6 0;
#X connect 7 0 8 0;
#X connect 8 0 9 0;
#X connect 10 0 0 0;
