#N canvas 3 97 1029 570 10;
#N canvas 0 22 450 278 (subpatch) 0;
#X array soundData 704513 float 4;
#X coords 0 1 704512 -1 200 140 1 0 0;
#X restore 5 398 graph;
#X obj 401 121 soundfiler;
#X floatatom 351 157 20 0 0 0 - - -;
#X obj 501 252 phasor~;
#X obj 511 281 *~;
#X obj 397 319 tabread4~ soundData;
#X obj 522 526 dac~;
#X obj 933 201 hsl 64 15 0.04 0.085 0 0 0$@ 0 0 0 0 0 4 -262144 -1 -1 3163 0;
#X floatatom 932 240 10 0 0 0 - - -;
#X msg 796 128 -1;
#X msg 845 129 1;
#X floatatom 850 249 10 0 0 0 - - -;
#X obj 828 215 *~;
#X msg 891 129 0;
#X obj 556 382 delwrite~ delayname 200;
#X obj 557 337 *~;
#X obj 726 387 vsl 15 128 -0.1 0.5 0 0 empty empty empty 0 -9 0 10 -262144 -1 -1 0 1;
#X obj 521 450 delread~ delayname 75;
#X obj 254 270 hsl 128 15 20 20000 1 0 empty empty empty -2 -8 0 10 -262144 -1 -1 0 1;
#X obj 226 324 hip~;
#X obj 226 450 lop~;
#X obj 364 25 loadbang;
#X obj 25 27 netreceive 1000;
#X obj 25 127 s audio_on;
#X obj 40 157 s audio_reverse;
#X obj 57 182 s audio_off;
#X obj 79 208 s hipassf;
#X obj 96 235 s lowpassf;
#X obj 117 262 s delay;
#X obj 131 290 s pitch;
#X obj 726 356 r delay;
#X obj 842 5 r audio_on;
#X obj 784 36 r audio_reverse;
#X obj 888 36 r audio_off;
#X obj 235 226 r hipassf;
#X obj 930 162 r pitch;
#X msg 269 67 \; pd dsp \$1 \;;
#X obj 784 89 bng 15 250 50 0 empty empty empty 17 7 0 10 -262144 -1 -1;
#X obj 842 91 bng 15 250 50 0 empty empty empty 17 7 0 10 -262144 -1 -1;
#X obj 889 93 bng 15 250 50 0 empty empty empty 17 7 0 10 -262144 -1 -1;
#X floatatom 179 118 5 0 0 0 - - -;
#X floatatom 179 138 5 0 0 0 - - -;
#X floatatom 179 158 5 0 0 0 - - -;
#X floatatom 179 178 5 0 0 0 - - -;
#X floatatom 179 198 5 0 0 0 - - -;
#X floatatom 179 218 5 0 0 0 - - -;
#X floatatom 179 241 5 0 0 0 - - -;
#X floatatom 179 261 5 0 0 0 - - -;
#X obj 351 208 expr 44100 / $f1;
#X floatatom 520 164 10 0 0 0 - - -;
#X text 515 143 Sample size;
#X obj 857 291 tgl 15 0 empty empty empty 17 7 0 10 -262144 -1 -1 0 1;
#X obj 857 311 metro 50;
#X obj 858 336 snapshot~;
#X obj 520 184 s sampleSize;
#X obj 858 357 /;
#X obj 913 365 r sampleSize;
#X floatatom 873 385 5 0 0 0 - - -;
#X msg 606 256 0;
#X msg 363 66 read -resize /Users/matthijsbremmer/wheelchair-design-platform/PureData/shortloop.wav soundData, f 65;
#X floatatom 408 265 10 0 0 0 - - -;
#X msg 938 119 0.0625964;
#X obj 939 94 loadbang;
#X obj 25 69 route 0 1 2 3 4 5 6 7;
#X obj 301 364 loadbang;
#X msg 301 388 50;
#X connect 1 0 2 0;
#X connect 1 0 49 0;
#X connect 2 0 4 1;
#X connect 2 0 48 0;
#X connect 3 0 4 0;
#X connect 4 0 5 0;
#X connect 4 0 53 0;
#X connect 5 0 19 0;
#X connect 7 0 8 0;
#X connect 7 0 12 1;
#X connect 9 0 12 0;
#X connect 10 0 12 0;
#X connect 10 0 18 0;
#X connect 12 0 3 0;
#X connect 12 0 11 0;
#X connect 13 0 12 0;
#X connect 15 0 14 0;
#X connect 16 0 15 1;
#X connect 17 0 15 0;
#X connect 17 0 6 0;
#X connect 17 0 6 1;
#X connect 18 0 19 1;
#X connect 19 0 20 0;
#X connect 20 0 14 0;
#X connect 21 0 59 0;
#X connect 21 0 36 0;
#X connect 22 0 63 0;
#X connect 30 0 16 0;
#X connect 31 0 38 0;
#X connect 32 0 37 0;
#X connect 33 0 39 0;
#X connect 34 0 18 0;
#X connect 35 0 7 0;
#X connect 37 0 9 0;
#X connect 38 0 10 0;
#X connect 39 0 13 0;
#X connect 48 0 3 0;
#X connect 48 0 60 0;
#X connect 49 0 54 0;
#X connect 51 0 52 0;
#X connect 52 0 53 0;
#X connect 53 0 55 0;
#X connect 55 0 57 0;
#X connect 56 0 55 1;
#X connect 58 0 3 1;
#X connect 59 0 1 0;
#X connect 61 0 7 0;
#X connect 62 0 61 0;
#X connect 63 0 23 0;
#X connect 63 0 40 0;
#X connect 63 1 24 0;
#X connect 63 1 41 0;
#X connect 63 2 25 0;
#X connect 63 2 42 0;
#X connect 63 3 26 0;
#X connect 63 3 43 0;
#X connect 63 4 27 0;
#X connect 63 4 44 0;
#X connect 63 5 28 0;
#X connect 63 5 45 0;
#X connect 63 6 29 0;
#X connect 63 6 46 0;
#X connect 63 7 47 0;
#X connect 64 0 65 0;
#X connect 65 0 20 0;
