#N canvas 3 97 1029 570 10;
#N canvas 0 22 450 278 (subpatch) 0;
#X array soundData 704513 float 4;
#X coords 0 1 704512 -1 200 140 1 0 0;
#X restore 5 398 graph;
#X obj 401 121 soundfiler;
#X floatatom 351 157 20 0 0 0 - - -;
#X obj 501 252 phasor~;
#X obj 511 281 *~;
#X obj 397 319 tabread4~ soundData;
#X obj 522 526 dac~;
#X msg 796 128 -1;
#X msg 845 129 1;
#X floatatom 850 249 10 0 0 0 - - -;
#X obj 828 215 *~;
#X msg 891 129 0;
#X obj 364 25 loadbang;
#X obj 842 5 r audio_on;
#X obj 784 36 r audio_reverse;
#X obj 888 36 r audio_off;
#X msg 269 67 \; pd dsp \$1 \;;
#X obj 784 89 bng 15 250 50 0 empty empty empty 17 7 0 10 -262144 -1
-1;
#X obj 842 91 bng 15 250 50 0 empty empty empty 17 7 0 10 -262144 -1
-1;
#X obj 889 93 bng 15 250 50 0 empty empty empty 17 7 0 10 -262144 -1
-1;
#X obj 351 208 expr 44100 / $f1;
#X floatatom 520 164 10 0 0 0 - - -;
#X text 515 143 Sample size;
#X obj 857 291 tgl 15 0 empty empty empty 17 7 0 10 -262144 -1 -1 0
1;
#X obj 857 311 metro 50;
#X obj 858 336 snapshot~;
#X obj 520 184 s sampleSize;
#X obj 858 357 /;
#X obj 913 365 r sampleSize;
#X floatatom 873 385 5 0 0 0 - - -;
#X msg 606 256 0;
#X msg 363 66 read -resize /Users/matthijsbremmer/wheelchair-design-platform/PureData/shortloop.wav
soundData, f 65;
#X floatatom 408 265 10 0 0 0 - - -;
#X msg 938 119 0.0625964;
#X obj 939 94 loadbang;
#X obj 721 164 loadbang;
#X connect 1 0 2 0;
#X connect 1 0 21 0;
#X connect 2 0 4 1;
#X connect 2 0 20 0;
#X connect 3 0 4 0;
#X connect 4 0 5 0;
#X connect 4 0 25 0;
#X connect 5 0 6 0;
#X connect 5 0 6 1;
#X connect 7 0 10 0;
#X connect 8 0 10 0;
#X connect 10 0 3 0;
#X connect 10 0 9 0;
#X connect 11 0 10 0;
#X connect 12 0 31 0;
#X connect 12 0 16 0;
#X connect 13 0 18 0;
#X connect 14 0 17 0;
#X connect 15 0 19 0;
#X connect 17 0 7 0;
#X connect 18 0 8 0;
#X connect 19 0 11 0;
#X connect 20 0 3 0;
#X connect 20 0 32 0;
#X connect 21 0 26 0;
#X connect 23 0 24 0;
#X connect 24 0 25 0;
#X connect 25 0 27 0;
#X connect 27 0 29 0;
#X connect 28 0 27 1;
#X connect 30 0 3 1;
#X connect 31 0 1 0;
#X connect 33 0 10 1;
#X connect 34 0 33 0;
#X connect 35 0 8 0;
