#N canvas 172 172 1029 570 10;
#N canvas 0 22 450 278 (subpatch) 0;
#X array soundData 704513 float 4;
#X coords 0 1 704512 -1 200 140 1 0 0;
#X restore 92 139 graph;
#X obj 401 121 soundfiler;
#X floatatom 351 157 20 0 0 0 - - -;
#X obj 522 260 phasor~;
#X obj 512 295 *~;
#X obj 503 351 tabread4~ soundData;
#X obj 522 526 dac~;
#X obj 364 25 loadbang;
#X obj 351 208 expr 44100 / $f1;
#X floatatom 520 164 10 0 0 0 - - -;
#X text 515 143 Sample size;
#X obj 520 184 s sampleSize;
#X floatatom 408 265 10 0 0 0 - - -;
#X obj 835 78 loadbang;
#X msg 845 129 0.0625964;
#X msg 363 66 read -resize /Users/matthijsbremmer/wheelchair-design-platform/PureData/shortloop.wav
soundData, f 66;
#X connect 1 0 2 0;
#X connect 1 0 9 0;
#X connect 2 0 8 0;
#X connect 2 0 4 1;
#X connect 3 0 4 0;
#X connect 4 0 5 0;
#X connect 5 0 6 0;
#X connect 5 0 6 1;
#X connect 7 0 15 0;
#X connect 8 0 3 0;
#X connect 8 0 12 0;
#X connect 9 0 11 0;
#X connect 12 0 4 1;
#X connect 13 0 14 0;
#X connect 14 0 3 0;
#X connect 15 0 1 0;
