#N canvas 226 98 1054 570 10;
#N canvas 0 22 450 278 (subpatch) 0;
#X array soundData 704513 float 4;
#X coords 0 1 704512 -1 200 140 1 0 0;
#X restore 711 350 graph;
#X obj 401 121 soundfiler;
#X floatatom 351 157 20 0 0 0 - - -;
#X obj 522 256 phasor~;
#X obj 522 284 *~;
#X obj 522 308 tabread4~ soundData;
#X obj 522 526 dac~;
#X obj 364 25 loadbang;
#X obj 350 208 expr 44100 / $f1;
#X floatatom 520 164 10 0 0 0 - - -;
#X text 515 143 Sample size;
#X obj 520 184 s sampleSize;
#X floatatom 408 265 10 0 0 0 - - -;
#X msg 277 72 \; pd dsp 1;
#X msg 363 66 read -resize /Users/matthijsbremmer/wheelchair-design-platform/wheelchair/PureData/shortloop.wav
soundData, f 65;
#X obj 40 47 netreceive 3000;
#X obj 40 71 route 0 1 2 3 4 5 6 7;
#X obj 69 170 s audio_reverse;
#X obj 87 197 s hipassf;
#X obj 104 224 s lowpassf;
#X obj 120 250 s delay;
#X obj 138 277 s pitch;
#X floatatom 191 115 5 0 0 0 - - -;
#X floatatom 191 144 5 0 0 0 - - -;
#X floatatom 191 172 5 0 0 0 - - -;
#X floatatom 191 198 5 0 0 0 - - -;
#X floatatom 191 224 5 0 0 0 - - -;
#X floatatom 191 251 5 0 0 0 - - -;
#X floatatom 191 278 5 0 0 0 - - -;
#X obj 40 114 s play_normal;
#X obj 55 142 s stop_playing;
#X obj 425 322 hip~;
#X obj 320 292 r hipassf;
#X obj 323 312 hsl 128 10 20 5000 1 0 empty empty empty -2 -8 0 10
-262130 -1 -1 0 1;
#X obj 324 374 hsl 128 10 100 20000 1 1 empty empty empty -2 -8 0 10
-203904 -1 -1 12700 1;
#X obj 321 354 r lowpassf;
#X obj 426 384 lop~;
#X text 210 309 between 20 & 5000;
#X text 212 371 between 20 & 5000;
#X msg 672 210 0;
#X msg 709 210 -1;
#X msg 634 210 1;
#X obj 634 130 r play_normal;
#X obj 672 157 r stop_playing;
#X obj 673 242 *~;
#X obj 751 242 hsl 128 15 0.044 0.08 0 0 empty empty empty -2 -8 0
10 -204786 -1 -1 6300 1;
#X floatatom 320 326 5 0 0 0 - - -;
#X floatatom 321 388 5 0 0 0 - - -;
#X obj 748 226 r pitch;
#X floatatom 882 242 5 0 0 0 - - -;
#X obj 709 184 r audio_reverse;
#X obj 842 170 loadbang;
#X msg 842 196 0.06;
#X connect 1 0 2 0;
#X connect 1 0 9 0;
#X connect 2 0 8 0;
#X connect 2 0 4 1;
#X connect 3 0 4 0;
#X connect 4 0 5 0;
#X connect 5 0 31 0;
#X connect 7 0 14 0;
#X connect 7 0 13 0;
#X connect 8 0 3 0;
#X connect 8 0 12 0;
#X connect 9 0 11 0;
#X connect 12 0 4 1;
#X connect 14 0 1 0;
#X connect 15 0 16 0;
#X connect 16 0 29 0;
#X connect 16 0 22 0;
#X connect 16 1 30 0;
#X connect 16 1 23 0;
#X connect 16 2 17 0;
#X connect 16 2 24 0;
#X connect 16 3 18 0;
#X connect 16 3 25 0;
#X connect 16 4 19 0;
#X connect 16 4 26 0;
#X connect 16 5 20 0;
#X connect 16 5 27 0;
#X connect 16 6 21 0;
#X connect 16 6 28 0;
#X connect 31 0 36 0;
#X connect 32 0 33 0;
#X connect 33 0 31 1;
#X connect 33 0 46 0;
#X connect 34 0 36 1;
#X connect 34 0 47 0;
#X connect 35 0 34 0;
#X connect 36 0 6 0;
#X connect 36 0 6 1;
#X connect 39 0 44 0;
#X connect 40 0 44 0;
#X connect 41 0 44 0;
#X connect 42 0 41 0;
#X connect 43 0 39 0;
#X connect 44 0 3 0;
#X connect 45 0 44 1;
#X connect 45 0 49 0;
#X connect 48 0 45 0;
#X connect 50 0 40 0;
#X connect 51 0 52 0;
#X connect 52 0 45 0;
